<svg width="24" height="24" viewBox="0 0 24 24" fill="none" xmlns="http://www.w3.org/2000/svg">
<rect opacity="0.1" width="24" height="24" rx="4" fill="#FF671D"/>
<path d="M3.70725 8.78713H3.36214C3.16571 8.78713 3.00116 8.94641 3.00116 9.14816C3.00116 9.3446 3.1604 9.50918 3.36214 9.50918H3.70725C3.90369 9.50918 4.06823 9.34991 4.06823 9.14816C4.06823 8.95172 3.909 8.78713 3.70725 8.78713ZM10.333 14.0113H9.98791C9.79148 14.0113 9.62693 14.1706 9.62693 14.367C9.62693 14.5635 9.78616 14.728 9.9826 14.728H10.3277C10.5241 14.728 10.6888 14.5688 10.6888 14.3723C10.6888 14.1759 10.5295 14.0113 10.333 14.0113ZM10.041 10.5922C10.041 10.3958 9.88175 10.2312 9.68001 10.2312H8.48014C8.2837 10.2312 8.12441 10.3905 8.12441 10.5922C8.12441 10.7887 8.2837 10.948 8.48014 10.948H9.68001C9.87644 10.948 10.041 10.7887 10.041 10.5869V10.5922ZM21.4078 8.34648L21.0415 6.29716C20.9407 5.52733 20.2664 4.96457 19.4912 5.00174H5.45397C4.92837 4.9805 4.48765 5.3893 4.46642 5.9149C4.46642 5.99985 4.46644 6.08479 4.48767 6.16443L4.86992 8.34117C4.86992 8.34117 4.86993 8.37302 4.88054 8.38895C4.92833 8.65441 4.79028 8.76059 4.66817 8.79776C4.48235 8.86677 4.38683 9.06852 4.45054 9.25434C4.50363 9.39769 4.63636 9.49325 4.78502 9.49325H20.4363C20.9619 9.50918 21.3972 9.10038 21.4185 8.57477C21.4185 8.49514 21.4184 8.4155 21.3972 8.33586L21.4078 8.34648ZM16.6296 16.5597C16.481 15.7633 16.0244 15.4713 15.5094 15.4713H11.8037C11.6072 15.4713 11.4426 15.6359 11.4426 15.8323C11.4426 16.0128 11.5807 16.1668 11.7612 16.188C11.878 16.2093 12.0054 16.3633 12.0851 16.7455L12.4673 18.8638C12.6106 19.5222 13.1893 19.9947 13.8636 20L16.0775 19.9894C16.6031 20.0106 17.0438 19.6018 17.0597 19.0762C17.0597 18.9966 17.0597 18.9169 17.0384 18.8373L16.6296 16.5544V16.5597ZM11.7293 14.7546H15.7536C15.7855 14.7546 15.812 14.7493 15.8439 14.7387C16.2155 14.6643 16.2315 14.3617 16.1837 14.0591L15.6687 11.24C15.5307 10.5073 15.1006 10.2206 14.5432 10.2206H10.8533C10.6569 10.2206 10.4976 10.3852 10.4976 10.5816C10.4976 10.7621 10.6303 10.9108 10.8109 10.932C10.933 10.9533 11.0657 11.1178 11.1453 11.5373L11.5329 13.6875C11.5754 13.852 11.4798 14.0113 11.3258 14.0485H11.3152C11.1294 14.1175 11.0339 14.3245 11.0976 14.5104C11.1507 14.6537 11.2834 14.7493 11.432 14.7493H11.7187L11.7293 14.7546Z" fill="#FF671D"/>
</svg>
